<svg width="134" height="92" viewBox="0 0 134 92" fill="none" xmlns="http://www.w3.org/2000/svg">
<g clip-path="url(#clip0_13_224)">
<path d="M12.7654 45.3406H17.137V24.2315H23.6703V20.2603H6.26752V24.2315H12.7654V45.3406Z" fill="#0080A9"/>
<path d="M32.7834 38.9669H42.4201L44.7945 45.3406H49.566L39.6256 20.2603H35.6413L25.6679 45.3406H30.3255L32.786 38.9669H32.7834ZM37.6486 25.6891L41.0001 35.0664H34.2212L37.6486 25.6891Z" fill="#0080A9"/>
<path d="M81.2143 38.9669H90.8484L93.2228 45.3406H97.9943L88.0539 20.2603H84.0696L74.0937 45.3406H78.7513L81.2117 38.9669H81.2143ZM86.0794 25.6891L89.4309 35.0664H82.6546L86.0794 25.6891Z" fill="#0080A9"/>
<path d="M67.3376 20.2603H54.4152V24.2315H62.9103L58.5615 28.4781L57.2199 29.7892L59.2526 32.2118C59.9689 31.8455 60.7789 31.6358 61.6396 31.6358C64.5531 31.6358 66.9148 33.9928 66.9148 36.9005C66.9148 39.8082 64.5531 42.1651 61.6396 42.1651C59.4576 42.1651 57.5946 40.8414 56.7921 38.9543H53.1572C53.3521 40.1063 53.7292 41.1445 54.3013 42.0641C54.6608 42.5719 55.0708 43.0367 55.5239 43.4586C56.7693 44.6156 58.3438 45.424 60.093 45.7271C60.5562 45.7877 61.0321 45.8282 61.5333 45.8282C62.766 45.8282 63.8874 45.6311 64.91 45.2446C64.9759 45.2193 65.0391 45.1941 65.1024 45.1688C65.2619 45.1031 65.4163 45.0324 65.5707 44.9566C65.7023 44.8935 65.8314 44.8253 65.958 44.757C66.0947 44.6813 66.2314 44.6055 66.3605 44.5196C66.4288 44.4792 66.4946 44.4337 66.563 44.3907C69.0032 42.7891 70.6182 40.0305 70.6182 36.898C70.6182 32.8181 67.8869 29.3774 64.1456 28.2936L70.2739 22.6627L68.2235 20.2603C67.9122 20.2704 67.6185 20.2704 67.3325 20.2603H67.3376Z" fill="#0080A9"/>
<path d="M132.917 0.628854C132.663 0.603592 132.398 0.575803 132.112 0.550541C121.455 -0.462475 79.7996 -1.19003 52.4564 9.08412C52.4564 9.08412 56.6482 9.10939 63.0955 9.3519C69.4415 7.21472 89.8843 2.03596 126.434 1.4903C124.786 1.69239 123.148 1.91975 121.521 2.16732C107.629 4.2843 94.7141 7.92206 85.8393 10.7919C81.2323 12.2823 77.7189 13.5631 75.7191 14.3185C74.5092 14.7757 73.8535 15.0435 73.8535 15.0435L73.3017 15.3138C73.3017 15.3138 91.0108 12.1383 108.33 13.8688C108.33 13.8688 107.1 13.6237 106.472 13.5126C101.566 12.6486 97.7415 12.0423 88.6668 11.7594C105.697 6.42654 128.629 2.8974 128.629 2.8974H128.636C119.987 9.9582 117.498 24.1455 103.194 44.3704C87.7631 66.1945 56.752 81.8444 36.7597 76.8374C28.3203 74.7255 23.402 70.4385 20.5315 66.1894C19.8328 65.1537 19.2582 64.123 18.7798 63.1251C20.1695 62.3849 21.6604 61.6877 23.2577 61.0359L27.3711 59.5303C27.3711 59.5303 27.3711 59.5278 27.3711 59.5252C27.4318 59.505 27.4875 59.4848 27.5457 59.4646C38.2583 55.9784 56.8862 53.3739 74.7598 53.2425C66.7659 52.3609 51.4818 53.2147 51.4818 53.2147C45.2421 53.581 38.5721 54.1747 32.8109 55.1094C26.8066 56.082 21.5997 57.3426 17.2104 58.8785C15.7195 59.4014 14.3196 59.9572 13.0186 60.5433C7.88505 62.8548 4.22225 65.6614 2.06304 68.948C-2.04275 75.203 0.167085 82.625 7.13072 91.9973C7.07503 91.8887 1.60487 81.0588 8.9558 71.1357C10.4265 69.1501 12.33 67.3262 14.6437 65.6715C14.75 65.9241 14.8538 66.1742 14.9702 66.4269C17.8635 72.7551 23.9918 79.9977 36.9622 83.3702C62.574 90.0268 91.9777 71.7749 108.12 44.9868C122.586 20.9801 122.645 9.96325 133.557 1.09873C133.61 1.05579 133.661 1.01537 133.714 0.97242C133.81 0.894107 133.909 0.815794 134.008 0.734955C133.686 0.699588 133.322 0.661695 132.922 0.621275L132.917 0.628854Z" fill="#8DC63F"/>
<path d="M100.888 23.8827V21.2832H101.994C102.273 21.2832 102.475 21.3059 102.602 21.3539C102.728 21.4019 102.829 21.4828 102.905 21.604C102.981 21.7228 103.019 21.8592 103.019 22.0133C103.019 22.2078 102.961 22.3695 102.847 22.4958C102.733 22.6221 102.561 22.7029 102.331 22.7358C102.445 22.8015 102.538 22.8747 102.612 22.953C102.685 23.0313 102.786 23.1728 102.91 23.3749L103.229 23.8827H102.599L102.219 23.3168C102.085 23.1147 101.992 22.9884 101.943 22.9354C101.893 22.8823 101.84 22.8469 101.787 22.8267C101.731 22.8065 101.642 22.7964 101.521 22.7964H101.414V23.8827H100.888ZM101.414 22.3821H101.804C102.057 22.3821 102.214 22.372 102.278 22.3493C102.341 22.3291 102.389 22.2912 102.424 22.2381C102.46 22.1851 102.478 22.1219 102.478 22.0436C102.478 21.9552 102.455 21.887 102.407 21.8314C102.361 21.7783 102.295 21.743 102.209 21.7303C102.166 21.7253 102.04 21.7202 101.824 21.7202H101.414V22.3796V22.3821Z" fill="#0080A9"/>
<path d="M101.86 25.0625C100.534 25.0625 99.4552 23.9863 99.4552 22.6626C99.4552 21.3389 100.534 20.2627 101.86 20.2627C103.186 20.2627 104.265 21.3389 104.265 22.6626C104.265 23.9863 103.186 25.0625 101.86 25.0625ZM101.86 20.7149C100.784 20.7149 99.9083 21.589 99.9083 22.6626C99.9083 23.7363 100.784 24.6103 101.86 24.6103C102.936 24.6103 103.812 23.7363 103.812 22.6626C103.812 21.589 102.936 20.7149 101.86 20.7149Z" fill="#0080A9"/>
</g>
<defs>
<clipPath id="clip0_13_224">
<rect width="134" height="92" fill="white"/>
</clipPath>
</defs>
</svg>
