<svg width="611" height="882" viewBox="0 0 611 882" fill="none" xmlns="http://www.w3.org/2000/svg">
<path d="M369.235 99.542C368.037 99.4222 366.779 99.2904 365.426 99.1707C314.996 94.3671 117.878 90.9172 -11.5135 139.636C-11.5135 139.636 8.32292 139.755 38.8322 140.905C68.8622 130.771 165.601 106.214 338.558 103.627H360.251C354.259 105.973 350.24 109.053 348.979 110.299C308.049 143.78 296.274 211.054 228.584 306.958C155.563 410.444 8.81407 484.654 -85.7921 460.911C-125.728 450.897 -149.003 430.569 -162.586 410.42C-165.892 405.509 -168.611 400.621 -170.875 395.89L-190.448 407.964C-189.945 409.162 -189.454 410.348 -188.903 411.546C-175.212 441.553 -146.212 475.897 -84.8338 491.889C36.3646 523.454 175.507 436.906 251.894 309.881C320.351 196.045 320.626 143.804 372.266 101.77C372.517 101.566 372.757 101.375 373.008 101.171C373.463 100.8 373.931 100.428 374.398 100.045C372.876 99.8774 371.152 99.6977 369.259 99.5061L369.235 99.542Z" fill="#DBF5EA" fill-opacity="0.1"/>
<path d="M429.331 72.0952C427.788 71.9408 426.169 71.771 424.426 71.6167C359.49 65.4269 105.67 60.9813 -60.9422 123.759C-60.9422 123.759 -35.3998 123.914 3.88559 125.396C42.554 112.337 167.12 80.693 389.829 77.3588H417.762C410.047 80.3818 404.872 84.3503 403.248 85.9567C350.544 129.1 335.382 215.788 248.22 339.369C154.194 472.72 -34.7674 568.345 -156.588 537.751C-208.012 524.847 -237.981 498.652 -255.472 472.689C-259.729 466.36 -263.23 460.062 -266.146 453.965L-291.349 469.525C-290.701 471.068 -290.068 472.596 -289.359 474.14C-271.729 512.807 -234.387 557.062 -155.354 577.669C0.708221 618.343 179.875 506.818 278.235 343.135C366.385 196.447 366.739 129.131 433.233 74.9663C433.557 74.7039 433.865 74.4569 434.189 74.1945C434.775 73.716 435.377 73.2375 435.979 72.7435C434.02 72.5274 431.799 72.2959 429.362 72.0489L429.331 72.0952Z" fill="#DBF5EA" fill-opacity="0.1"/>
<path d="M501.429 43.739C499.237 43.5196 496.936 43.2783 494.459 43.0589C402.182 34.2618 41.4897 27.9437 -195.275 117.165C-195.275 117.165 -158.978 117.385 -103.151 119.491C-48.2011 100.931 128.813 55.9584 445.296 51.2198H484.989C474.025 55.5161 466.671 61.1562 464.365 63.4392C389.469 124.756 367.923 247.959 244.061 423.594C110.446 613.115 -158.079 749.021 -331.192 705.54C-404.268 687.2 -446.856 649.971 -471.712 613.072C-477.761 604.077 -482.737 595.126 -486.879 586.461L-522.694 608.574C-521.774 610.768 -520.875 612.94 -519.867 615.134C-494.814 670.088 -441.749 732.984 -329.438 762.271C-107.666 820.078 146.94 661.576 286.715 428.947C411.979 220.471 412.483 124.8 506.974 47.8194C507.435 47.4465 507.873 47.0955 508.333 46.7225C509.166 46.0425 510.021 45.3624 510.876 44.6604C508.092 44.3532 504.936 44.0242 501.473 43.6732L501.429 43.739Z" fill="#DBF5EA" fill-opacity="0.1"/>
<path d="M597.989 7.35316C595.031 7.05685 591.926 6.73091 588.583 6.4346C464.061 -5.44746 -22.6696 -13.9812 -342.168 106.528C-342.168 106.528 -293.187 106.825 -217.853 109.669C-143.702 84.6014 95.168 23.8577 522.241 17.4574H575.805C561.01 23.2603 551.086 30.8783 547.973 33.9619C446.906 116.781 417.831 283.189 250.688 520.415C70.382 776.398 -291.975 959.962 -525.579 901.234C-624.192 876.462 -681.661 826.178 -715.202 776.339C-723.366 764.19 -730.08 752.1 -735.67 740.396L-784 770.264C-782.758 773.227 -781.545 776.161 -780.184 779.124C-746.377 853.35 -674.769 938.302 -523.213 977.859C-223.946 1055.94 119.629 841.853 308.246 527.645C477.283 246.061 477.963 116.84 605.472 12.8645C606.093 12.3608 606.685 11.8867 607.306 11.383C608.43 10.4644 609.584 9.54586 610.737 8.59767C606.981 8.18283 602.722 7.73837 598.048 7.26427L597.989 7.35316Z" fill="#DBF5EA" fill-opacity="0.1"/>
<path d="M312.281 122.109C311.384 122.019 310.443 121.92 309.43 121.83C271.687 118.228 124.158 115.641 27.3168 152.177C27.3168 152.177 42.163 152.267 64.997 153.129C87.4725 145.529 159.875 127.113 289.321 125.172H305.557C301.072 126.932 298.064 129.241 297.121 130.176C266.487 155.285 257.675 205.737 207.013 277.66C152.362 355.27 42.5305 410.923 -28.2757 393.118C-58.1653 385.607 -75.5844 370.362 -85.7508 355.252C-88.2252 351.568 -90.2603 347.903 -91.9547 344.355L-106.604 353.41C-106.227 354.308 -105.86 355.198 -105.447 356.096C-95.2 378.6 -73.4956 404.356 -27.5585 416.349C63.1502 440.021 167.289 375.115 224.459 279.852C275.694 194.481 275.901 155.303 314.549 123.78C314.737 123.627 314.917 123.483 315.105 123.331C315.446 123.052 315.795 122.774 316.145 122.486C315.006 122.36 313.715 122.226 312.299 122.082L312.281 122.109Z" fill="#DBF5EA" fill-opacity="0.1"/>
</svg>
