<svg width="265" height="262" viewBox="0 0 265 262" fill="none" xmlns="http://www.w3.org/2000/svg">
<path d="M3.10193 1.78539C3.82162 1.71345 4.57736 1.63431 5.39062 1.56236C35.6902 -1.32268 154.125 -3.39472 231.867 25.8657C231.867 25.8657 219.949 25.9377 201.618 26.6284C183.575 20.5417 125.452 5.79279 21.5335 4.23876C26.2188 4.81432 30.8753 5.46184 35.503 6.16691C75.0003 12.196 111.72 22.5562 136.952 30.7293C150.051 34.9741 160.041 38.6218 165.726 40.773C169.166 42.0752 171.03 42.8378 171.03 42.8378L172.599 43.6077C172.599 43.6077 122.249 34.564 73.0068 39.4923C73.0068 39.4923 76.5045 38.7945 78.2894 38.4779C92.2373 36.0173 103.112 34.2906 128.913 33.4848C80.4917 18.297 15.2937 8.24615 15.2937 8.24615H15.2721C39.8644 28.3551 46.9391 68.76 87.6096 126.36C131.483 188.514 219.654 233.085 276.496 218.825C300.491 212.81 314.475 200.601 322.636 188.5C324.623 185.55 326.256 182.615 327.616 179.773C323.665 177.665 319.426 175.679 314.885 173.823L303.19 169.535C303.19 169.535 303.19 169.528 303.19 169.521C303.017 169.463 302.859 169.405 302.693 169.348C272.235 159.419 219.272 152.002 168.454 151.628C191.182 149.117 234.638 151.548 234.638 151.548C252.379 152.592 271.343 154.282 287.723 156.944C304.795 159.714 319.599 163.304 332.079 167.679C336.318 169.168 340.298 170.751 343.997 172.42C358.593 179.003 369.007 186.996 375.146 196.356C386.819 214.17 380.536 235.308 360.737 262C360.896 261.691 376.448 230.847 355.548 202.587C351.367 196.932 345.955 191.737 339.376 187.025C339.074 187.744 338.779 188.457 338.448 189.176C330.222 207.199 312.798 227.826 275.92 237.43C203.1 256.388 119.5 204.407 73.6041 128.116C32.4731 59.7452 32.3075 28.3695 1.2811 3.12359C1.12994 3.00128 0.986023 2.88617 0.834869 2.76386C0.561401 2.54083 0.280701 2.3178 0 2.08757C0.914032 1.98684 1.95044 1.87892 3.08755 1.76381L3.10193 1.78539Z" fill="#DBF5EA" fill-opacity="0.5"/>
</svg>
