<svg width="29" height="44" viewBox="0 0 29 44" fill="none" xmlns="http://www.w3.org/2000/svg">
<path d="M19.626 19.8516C21.042 18.4193 21.75 16.691 21.75 14.6667C21.75 12.6424 21.042 10.9141 19.626 9.48177C18.21 8.04948 16.5013 7.33333 14.5 7.33333C12.4987 7.33333 10.79 8.04948 9.37402 9.48177C7.95801 10.9141 7.25 12.6424 7.25 14.6667C7.25 16.691 7.95801 18.4193 9.37402 19.8516C10.79 21.2839 12.4987 22 14.5 22C16.5013 22 18.21 21.2839 19.626 19.8516ZM29 14.6667C29 16.7483 28.6885 18.4575 28.0654 19.7943L17.7568 41.9661C17.4548 42.5964 17.0016 43.0929 16.3975 43.4557C15.8122 43.8186 15.1797 44 14.5 44C13.8203 44 13.1784 43.8186 12.5742 43.4557C11.9889 43.0929 11.5547 42.5964 11.2715 41.9661L0.93457 19.7943C0.311523 18.4575 0 16.7483 0 14.6667C0 10.6181 1.41601 7.16146 4.24805 4.29687C7.08008 1.43229 10.4974 0 14.5 0C18.5026 0 21.9199 1.43229 24.7519 4.29687C27.584 7.16146 29 10.6181 29 14.6667Z" fill="white"/>
</svg>
