<svg width="575" height="459" viewBox="0 0 575 459" fill="none" xmlns="http://www.w3.org/2000/svg">
<g opacity="0.3">
<path d="M241.592 99.542C242.79 99.4222 244.049 99.2904 245.403 99.1707C295.851 94.3671 493.044 90.9172 622.484 139.636C622.484 139.636 602.64 139.755 572.12 140.905C542.078 130.771 445.303 106.214 272.281 103.627H250.58C256.574 105.973 260.594 109.053 261.855 110.299C302.801 143.78 314.581 211.054 382.297 306.958C455.345 410.444 602.149 484.654 696.791 460.911C736.742 450.897 760.025 430.569 773.614 410.42C776.921 405.509 779.641 400.621 781.906 395.89L801.486 407.964C800.983 409.162 800.492 410.348 799.941 411.546C786.244 441.553 757.233 475.897 695.832 491.889C574.588 523.454 435.393 436.906 358.978 309.881C290.495 196.045 290.219 143.804 238.56 101.77C238.309 101.566 238.069 101.375 237.817 101.171C237.362 100.8 236.895 100.428 236.427 100.045C237.949 99.8774 239.675 99.6977 241.568 99.5061L241.592 99.542Z" fill="#DBF5EA" fill-opacity="0.3"/>
<path d="M181.475 72.0952C183.018 71.9408 184.638 71.771 186.382 71.6167C251.342 65.4269 505.258 60.9813 671.933 123.759C671.933 123.759 646.38 123.914 607.08 125.396C568.397 112.337 443.785 80.693 220.991 77.3588H193.048C200.766 80.3818 205.943 84.3503 207.567 85.9567C260.291 129.1 275.459 215.788 362.654 339.369C456.715 472.72 645.748 568.345 767.614 537.751C819.058 524.847 849.038 498.652 866.536 472.689C870.794 466.36 874.297 460.062 877.213 453.965L902.426 469.525C901.778 471.068 901.145 472.596 900.435 474.14C882.799 512.807 845.443 557.062 766.38 577.669C610.259 618.343 431.024 506.818 332.627 343.135C244.445 196.447 244.09 129.131 177.571 74.9663C177.247 74.7039 176.938 74.4569 176.614 74.1945C176.028 73.716 175.426 73.2375 174.824 72.7435C176.784 72.5274 179.006 72.2959 181.444 72.0489L181.475 72.0952Z" fill="#DBF5EA" fill-opacity="0.3"/>
<path d="M109.35 43.739C111.543 43.5196 113.845 43.2783 116.323 43.0589C208.635 34.2618 569.463 27.9437 806.316 117.165C806.316 117.165 770.006 117.385 714.158 119.491C659.187 100.931 482.106 55.9584 165.505 51.2198H125.796C136.764 55.5161 144.121 61.1562 146.428 63.4392C221.352 124.756 242.906 247.959 366.815 423.594C500.481 613.115 769.107 749.021 942.285 705.54C1015.39 687.2 1057.99 649.971 1082.86 613.072C1088.91 604.077 1093.89 595.126 1098.03 586.461L1133.86 608.574C1132.94 610.768 1132.04 612.94 1131.03 615.134C1105.97 670.088 1052.88 732.984 940.53 762.271C718.675 820.078 463.973 661.576 324.145 428.947C198.833 220.471 198.329 124.8 103.803 47.8194C103.342 47.4465 102.904 47.0955 102.443 46.7225C101.61 46.0425 100.755 45.3624 99.8997 44.6604C102.684 44.3532 105.842 44.0242 109.306 43.6732L109.35 43.739Z" fill="#DBF5EA" fill-opacity="0.3"/>
<path d="M12.7517 7.35316C15.7106 7.05685 18.8176 6.73091 22.1611 6.4346C146.73 -5.44746 633.644 -13.9812 953.263 106.528C953.263 106.528 904.264 106.825 828.901 109.669C754.722 84.6014 515.762 23.8577 88.5288 17.4574H34.9445C49.745 23.2603 59.6727 30.8783 62.7865 33.9619C163.892 116.781 192.977 283.189 360.184 520.415C540.558 776.398 903.051 959.962 1136.74 901.234C1235.39 876.462 1292.88 826.178 1326.44 776.339C1334.6 764.19 1341.32 752.1 1346.91 740.396L1395.26 770.264C1394.02 773.227 1392.81 776.161 1391.44 779.124C1357.62 853.35 1285.99 938.302 1134.38 977.859C834.997 1055.94 491.292 841.853 302.604 527.645C133.504 246.061 132.823 116.84 5.26587 12.8645C4.64453 12.3608 4.05261 11.8867 3.43127 11.383C2.30688 10.4644 1.15283 9.54586 -0.00109863 8.59767C3.75671 8.18283 8.01758 7.73837 12.6926 7.26427L12.7517 7.35316Z" fill="#DBF5EA" fill-opacity="0.3"/>
<path d="M298.567 122.108C299.464 122.018 300.405 121.92 301.419 121.83C339.176 118.227 486.761 115.64 583.638 152.176C583.638 152.176 568.787 152.266 545.944 153.129C523.46 145.529 451.031 127.112 321.535 125.172H305.294C309.78 126.931 312.789 129.241 313.733 130.176C344.378 155.285 353.194 205.737 403.875 277.66C458.546 355.269 568.419 410.923 639.252 393.117C669.153 385.607 686.578 370.362 696.749 355.251C699.224 351.568 701.26 347.903 702.955 344.354L717.609 353.41C717.233 354.308 716.865 355.197 716.452 356.096C706.201 378.6 684.489 404.356 638.534 416.349C547.792 440.021 443.614 375.114 386.422 279.852C335.167 194.48 334.961 155.303 296.298 123.779C296.11 123.626 295.93 123.483 295.742 123.33C295.401 123.052 295.051 122.773 294.702 122.486C295.84 122.36 297.132 122.225 298.549 122.081L298.567 122.108Z" fill="#DBF5EA" fill-opacity="0.3"/>
</g>
</svg>
