<svg width="32" height="25" viewBox="0 0 32 25" fill="none" xmlns="http://www.w3.org/2000/svg">
<path d="M32 8.06108V22.1591C32 22.9403 31.7202 23.6091 31.1607 24.1655C30.6012 24.7218 29.9286 25 29.1429 25H2.85714C2.07143 25 1.39881 24.7218 0.839285 24.1655C0.279761 23.6091 0 22.9403 0 22.1591V8.06108C0.52381 8.6411 1.125 9.15601 1.80357 9.60582C6.1131 12.5178 9.07143 14.5597 10.6786 15.7315C11.3571 16.2287 11.9048 16.6193 12.3214 16.9034C12.75 17.1757 13.3155 17.4598 14.0179 17.7557C14.7202 18.0398 15.375 18.1818 15.9821 18.1818H16H16.0179C16.625 18.1818 17.2798 18.0398 17.9821 17.7557C18.6845 17.4598 19.244 17.1757 19.6607 16.9034C20.0893 16.6193 20.6429 16.2287 21.3214 15.7315C23.3452 14.2756 26.3095 12.2337 30.2143 9.60582C30.8929 9.14417 31.4881 8.62926 32 8.06108ZM32 2.84091C32 3.77604 31.7083 4.66974 31.125 5.52202C30.5417 6.37429 29.8155 7.10227 28.9464 7.70597C24.4702 10.7955 21.6845 12.719 20.5893 13.4766C20.4702 13.5594 20.2143 13.7429 19.8214 14.027C19.4405 14.2992 19.119 14.5241 18.8571 14.7017C18.6071 14.8674 18.2976 15.0568 17.9286 15.2699C17.5714 15.483 17.2321 15.6428 16.9107 15.7493C16.5893 15.8558 16.2917 15.9091 16.0179 15.9091H16H15.9821C15.7083 15.9091 15.4107 15.8558 15.0893 15.7493C14.7679 15.6428 14.4226 15.483 14.0536 15.2699C13.6964 15.0568 13.3869 14.8674 13.125 14.7017C12.875 14.5241 12.5536 14.2992 12.1607 14.027C11.7798 13.7429 11.5298 13.5594 11.4107 13.4766C10.3274 12.719 8.76786 11.6418 6.73214 10.245C4.69643 8.83641 3.47619 7.99006 3.07143 7.70597C2.33333 7.20881 1.6369 6.52817 0.982143 5.66406C0.327381 4.78811 0 3.97727 0 3.23153C0 2.30824 0.244047 1.53882 0.732143 0.923294C1.23214 0.307764 1.94048 0 2.85714 0H29.1429C29.9167 0 30.5833 0.278172 31.1429 0.834516C31.7143 1.39086 32 2.05966 32 2.84091Z" fill="white"/>
</svg>
