<svg width="31" height="31" viewBox="0 0 31 31" fill="none" xmlns="http://www.w3.org/2000/svg">
<path d="M31 24.483C31 24.8793 30.9266 25.4003 30.7798 26.0462C30.6331 26.6773 30.4789 27.1764 30.3175 27.5433C30.0092 28.2772 29.1139 29.0552 27.6314 29.8771C26.2517 30.6257 24.8866 31 23.5362 31C23.1399 31 22.7509 30.978 22.3693 30.934C22.0024 30.8752 21.584 30.7798 21.1143 30.6477C20.6446 30.5156 20.2924 30.4129 20.0575 30.3395C19.8374 30.2514 19.4337 30.0973 18.8466 29.8771C18.2595 29.657 17.8999 29.5249 17.7678 29.4808C16.3293 28.9671 15.045 28.358 13.9148 27.6534C12.036 26.4938 10.0911 24.916 8.08026 22.9197C6.08404 20.9089 4.50616 18.964 3.34659 17.0852C2.64205 15.955 2.03291 14.6707 1.51918 13.2322C1.47514 13.1001 1.34304 12.7405 1.12287 12.1534C0.902699 11.5663 0.74858 11.1626 0.660512 10.9425C0.587121 10.7076 0.484375 10.3554 0.352273 9.88565C0.220171 9.41596 0.124763 8.99763 0.0660505 8.63068C0.0220164 8.24905 0 7.86009 0 7.46378C0 6.1134 0.37429 4.74834 1.12287 3.36861C1.94484 1.88613 2.72277 0.990766 3.45668 0.682528C3.82363 0.52107 4.32268 0.36695 4.95384 0.22017C5.59967 0.0733893 6.12074 0 6.51705 0C6.72254 0 6.87666 0.0220162 6.9794 0.0660505C7.24361 0.154119 7.63258 0.711885 8.14631 1.73935C8.30777 2.01823 8.52794 2.41454 8.80682 2.92827C9.0857 3.442 9.34257 3.91169 9.57742 4.33736C9.81226 4.74834 10.0398 5.13731 10.2599 5.50426C10.304 5.56297 10.4287 5.74645 10.6342 6.05469C10.8544 6.36293 11.0159 6.62713 11.1186 6.8473C11.2214 7.05279 11.2727 7.25829 11.2727 7.46378C11.2727 7.75734 11.0599 8.12429 10.6342 8.56463C10.2232 9.00497 9.76823 9.40862 9.26918 9.77557C8.7848 10.1425 8.32978 10.5315 7.90412 10.9425C7.49313 11.3535 7.28764 11.6911 7.28764 11.9553C7.28764 12.0874 7.32434 12.2562 7.39773 12.4616C7.47112 12.6525 7.52983 12.7992 7.57386 12.902C7.63258 13.0047 7.73532 13.1809 7.8821 13.4304C8.04356 13.6799 8.13163 13.8194 8.14631 13.8487C9.26184 15.8596 10.5388 17.5843 11.9773 19.0227C13.4157 20.4612 15.1404 21.7382 17.1513 22.8537C17.1806 22.8684 17.3201 22.9564 17.5696 23.1179C17.8191 23.2647 17.9953 23.3674 18.098 23.4261C18.2008 23.4702 18.3475 23.5289 18.5384 23.6023C18.7438 23.6757 18.9126 23.7124 19.0447 23.7124C19.3089 23.7124 19.6465 23.5069 20.0575 23.0959C20.4685 22.6702 20.8575 22.2152 21.2244 21.7308C21.5914 21.2318 21.995 20.7768 22.4354 20.3658C22.8757 19.9401 23.2427 19.7273 23.5362 19.7273C23.7417 19.7273 23.9472 19.7786 24.1527 19.8814C24.3729 19.9841 24.6371 20.1456 24.9453 20.3658C25.2535 20.5713 25.437 20.696 25.4957 20.7401C25.8627 20.9602 26.2517 21.1877 26.6626 21.4226C27.0883 21.6574 27.558 21.9143 28.0717 22.1932C28.5855 22.4721 28.9818 22.6922 29.2607 22.8537C30.2881 23.3674 30.8459 23.7564 30.934 24.0206C30.978 24.1233 31 24.2775 31 24.483Z" fill="white"/>
</svg>
