<svg width="643" height="789" viewBox="0 0 643 789" fill="none" xmlns="http://www.w3.org/2000/svg">
<path d="M401.235 99.542C400.037 99.4222 398.779 99.2904 397.426 99.1707C346.996 94.3671 149.878 90.9172 20.4865 139.636C20.4865 139.636 40.3229 139.755 70.8322 140.905C100.862 130.771 197.601 106.214 370.558 103.627H392.251C386.259 105.973 382.24 109.053 380.979 110.299C340.049 143.78 328.274 211.054 260.584 306.958C187.563 410.444 40.8141 484.654 -53.7921 460.911C-93.7284 450.897 -117.003 430.569 -130.586 410.42C-133.892 405.509 -136.611 400.621 -138.875 395.89L-158.448 407.964C-157.945 409.162 -157.454 410.348 -156.903 411.546C-143.212 441.553 -114.212 475.897 -52.8338 491.889C68.3646 523.454 207.507 436.906 283.894 309.881C352.351 196.045 352.626 143.804 404.266 101.77C404.517 101.566 404.757 101.375 405.008 101.171C405.463 100.8 405.931 100.428 406.398 100.045C404.876 99.8774 403.152 99.6977 401.259 99.5061L401.235 99.542Z" fill="#D6EADD" fill-opacity="0.33"/>
<path d="M461.331 72.0952C459.788 71.9408 458.169 71.771 456.426 71.6167C391.49 65.4269 137.67 60.9813 -28.9422 123.759C-28.9422 123.759 -3.3998 123.914 35.8856 125.396C74.554 112.337 199.12 80.693 421.829 77.3588H449.762C442.047 80.3818 436.872 84.3503 435.248 85.9567C382.544 129.1 367.382 215.788 280.22 339.369C186.194 472.72 -2.76736 568.345 -124.588 537.751C-176.012 524.847 -205.981 498.652 -223.472 472.689C-227.729 466.36 -231.23 460.062 -234.146 453.965L-259.349 469.525C-258.701 471.068 -258.068 472.596 -257.359 474.14C-239.729 512.807 -202.387 557.062 -123.354 577.669C32.7082 618.343 211.875 506.818 310.235 343.135C398.385 196.447 398.739 129.131 465.233 74.9663C465.557 74.7039 465.865 74.4569 466.189 74.1945C466.775 73.716 467.377 73.2375 467.979 72.7435C466.02 72.5274 463.799 72.2959 461.362 72.0489L461.331 72.0952Z" fill="#D6EADD" fill-opacity="0.33"/>
<path d="M533.429 43.739C531.237 43.5196 528.936 43.2783 526.459 43.0589C434.182 34.2618 73.4897 27.9437 -163.275 117.165C-163.275 117.165 -126.978 117.385 -71.151 119.491C-16.2011 100.931 160.813 55.9584 477.296 51.2198H516.989C506.025 55.5161 498.671 61.1562 496.365 63.4392C421.469 124.756 399.923 247.959 276.061 423.594C142.446 613.115 -126.079 749.021 -299.192 705.54C-372.268 687.2 -414.856 649.971 -439.712 613.072C-445.761 604.077 -450.737 595.126 -454.879 586.461L-490.694 608.574C-489.774 610.768 -488.875 612.94 -487.867 615.134C-462.814 670.088 -409.749 732.984 -297.438 762.271C-75.6662 820.078 178.94 661.576 318.715 428.947C443.979 220.471 444.483 124.8 538.974 47.8194C539.435 47.4465 539.873 47.0955 540.333 46.7225C541.166 46.0425 542.021 45.3624 542.876 44.6604C540.092 44.3532 536.936 44.0242 533.473 43.6732L533.429 43.739Z" fill="#D6EADD" fill-opacity="0.33"/>
<path d="M629.989 7.35316C627.031 7.05685 623.926 6.73091 620.583 6.4346C496.061 -5.44746 9.33038 -13.9812 -310.168 106.528C-310.168 106.528 -261.187 106.825 -185.853 109.669C-111.702 84.6014 127.168 23.8577 554.241 17.4574H607.805C593.01 23.2603 583.086 30.8783 579.973 33.9619C478.906 116.781 449.831 283.189 282.688 520.415C102.382 776.398 -259.975 959.962 -493.579 901.234C-592.192 876.462 -649.661 826.178 -683.202 776.339C-691.366 764.19 -698.08 752.1 -703.67 740.396L-752 770.264C-750.758 773.227 -749.545 776.161 -748.184 779.124C-714.377 853.35 -642.769 938.302 -491.213 977.859C-191.946 1055.94 151.629 841.853 340.246 527.645C509.283 246.061 509.963 116.84 637.472 12.8645C638.093 12.3608 638.685 11.8867 639.306 11.383C640.43 10.4644 641.584 9.54586 642.737 8.59767C638.981 8.18283 634.722 7.73837 630.048 7.26427L629.989 7.35316Z" fill="#D6EADD" fill-opacity="0.33"/>
<path d="M344.281 122.109C343.384 122.019 342.443 121.92 341.43 121.83C303.687 118.228 156.158 115.641 59.3168 152.177C59.3168 152.177 74.163 152.267 96.997 153.129C119.472 145.529 191.875 127.113 321.321 125.172H337.557C333.072 126.932 330.064 129.241 329.121 130.176C298.487 155.285 289.675 205.737 239.013 277.66C184.362 355.27 74.5305 410.923 3.72431 393.118C-26.1653 385.607 -43.5844 370.362 -53.7508 355.252C-56.2252 351.568 -58.2603 347.903 -59.9547 344.355L-74.6036 353.41C-74.2271 354.308 -73.8595 355.198 -73.4471 356.096C-63.2 378.6 -41.4956 404.356 4.44151 416.349C95.1502 440.021 199.289 375.115 256.459 279.852C307.694 194.481 307.901 155.303 346.549 123.78C346.737 123.627 346.917 123.483 347.105 123.331C347.446 123.052 347.795 122.774 348.145 122.486C347.006 122.36 345.715 122.226 344.299 122.082L344.281 122.109Z" fill="#D6EADD" fill-opacity="0.33"/>
</svg>
