<svg width="30" height="44" viewBox="0 0 30 44" fill="none" xmlns="http://www.w3.org/2000/svg">
<path d="M20.126 19.8516C21.542 18.4193 22.25 16.691 22.25 14.6667C22.25 12.6424 21.542 10.9141 20.126 9.48177C18.71 8.04948 17.0013 7.33333 15 7.33333C12.9987 7.33333 11.29 8.04948 9.87402 9.48177C8.45801 10.9141 7.75 12.6424 7.75 14.6667C7.75 16.691 8.45801 18.4193 9.87402 19.8516C11.29 21.2839 12.9987 22 15 22C17.0013 22 18.71 21.2839 20.126 19.8516ZM29.5 14.6667C29.5 16.7483 29.1885 18.4575 28.5654 19.7943L18.2568 41.9661C17.9548 42.5964 17.5016 43.0929 16.8975 43.4557C16.3122 43.8186 15.6797 44 15 44C14.3203 44 13.6784 43.8186 13.0742 43.4557C12.4889 43.0929 12.0547 42.5964 11.7715 41.9661L1.43457 19.7943C0.811523 18.4575 0.5 16.7483 0.5 14.6667C0.5 10.6181 1.91601 7.16146 4.74805 4.29687C7.58008 1.43229 10.9974 0 15 0C19.0026 0 22.4199 1.43229 25.2519 4.29687C28.084 7.16146 29.5 10.6181 29.5 14.6667Z" fill="#0181AA"/>
</svg>
