<svg width="33" height="25" viewBox="0 0 33 25" fill="none" xmlns="http://www.w3.org/2000/svg">
<path d="M32.5 8.06108V22.1591C32.5 22.9403 32.2202 23.6091 31.6607 24.1655C31.1012 24.7218 30.4286 25 29.6429 25H3.35714C2.57143 25 1.89881 24.7218 1.33929 24.1655C0.779761 23.6091 0.5 22.9403 0.5 22.1591V8.06108C1.02381 8.6411 1.625 9.15601 2.30357 9.60582C6.6131 12.5178 9.57143 14.5597 11.1786 15.7315C11.8571 16.2287 12.4048 16.6193 12.8214 16.9034C13.25 17.1757 13.8155 17.4598 14.5179 17.7557C15.2202 18.0398 15.875 18.1818 16.4821 18.1818H16.5H16.5179C17.125 18.1818 17.7798 18.0398 18.4821 17.7557C19.1845 17.4598 19.744 17.1757 20.1607 16.9034C20.5893 16.6193 21.1429 16.2287 21.8214 15.7315C23.8452 14.2756 26.8095 12.2337 30.7143 9.60582C31.3929 9.14417 31.9881 8.62926 32.5 8.06108ZM32.5 2.84091C32.5 3.77604 32.2083 4.66974 31.625 5.52202C31.0417 6.37429 30.3155 7.10227 29.4464 7.70597C24.9702 10.7955 22.1845 12.719 21.0893 13.4766C20.9702 13.5594 20.7143 13.7429 20.3214 14.027C19.9405 14.2992 19.619 14.5241 19.3571 14.7017C19.1071 14.8674 18.7976 15.0568 18.4286 15.2699C18.0714 15.483 17.7321 15.6428 17.4107 15.7493C17.0893 15.8558 16.7917 15.9091 16.5179 15.9091H16.5H16.4821C16.2083 15.9091 15.9107 15.8558 15.5893 15.7493C15.2679 15.6428 14.9226 15.483 14.5536 15.2699C14.1964 15.0568 13.8869 14.8674 13.625 14.7017C13.375 14.5241 13.0536 14.2992 12.6607 14.027C12.2798 13.7429 12.0298 13.5594 11.9107 13.4766C10.8274 12.719 9.26786 11.6418 7.23214 10.245C5.19643 8.83641 3.97619 7.99006 3.57143 7.70597C2.83333 7.20881 2.1369 6.52817 1.48214 5.66406C0.827381 4.78811 0.5 3.97727 0.5 3.23153C0.5 2.30824 0.744047 1.53882 1.23214 0.923294C1.73214 0.307764 2.44048 0 3.35714 0H29.6429C30.4167 0 31.0833 0.278172 31.6429 0.834516C32.2143 1.39086 32.5 2.05966 32.5 2.84091Z" fill="#0181AA"/>
</svg>
