<svg width="32" height="31" viewBox="0 0 32 31" fill="none" xmlns="http://www.w3.org/2000/svg">
<path d="M31.5 24.483C31.5 24.8793 31.4266 25.4003 31.2798 26.0462C31.1331 26.6773 30.9789 27.1764 30.8175 27.5433C30.5092 28.2772 29.6139 29.0552 28.1314 29.8771C26.7517 30.6257 25.3866 31 24.0362 31C23.6399 31 23.2509 30.978 22.8693 30.934C22.5024 30.8752 22.084 30.7798 21.6143 30.6477C21.1446 30.5156 20.7924 30.4129 20.5575 30.3395C20.3374 30.2514 19.9337 30.0973 19.3466 29.8771C18.7595 29.657 18.3999 29.5249 18.2678 29.4808C16.8293 28.9671 15.545 28.358 14.4148 27.6534C12.536 26.4938 10.5911 24.916 8.58026 22.9197C6.58404 20.9089 5.00616 18.964 3.84659 17.0852C3.14205 15.955 2.53291 14.6707 2.01918 13.2322C1.97514 13.1001 1.84304 12.7405 1.62287 12.1534C1.4027 11.5663 1.24858 11.1626 1.16051 10.9425C1.08712 10.7076 0.984375 10.3554 0.852273 9.88565C0.720171 9.41596 0.624763 8.99763 0.566051 8.63068C0.522016 8.24905 0.5 7.86009 0.5 7.46378C0.5 6.1134 0.87429 4.74834 1.62287 3.36861C2.44484 1.88613 3.22277 0.990766 3.95668 0.682528C4.32363 0.52107 4.82268 0.36695 5.45384 0.22017C6.09967 0.0733893 6.62074 0 7.01705 0C7.22254 0 7.37666 0.0220162 7.4794 0.0660505C7.74361 0.154119 8.13258 0.711885 8.64631 1.73935C8.80777 2.01823 9.02794 2.41454 9.30682 2.92827C9.5857 3.442 9.84257 3.91169 10.0774 4.33736C10.3123 4.74834 10.5398 5.13731 10.7599 5.50426C10.804 5.56297 10.9287 5.74645 11.1342 6.05469C11.3544 6.36293 11.5159 6.62713 11.6186 6.8473C11.7214 7.05279 11.7727 7.25829 11.7727 7.46378C11.7727 7.75734 11.5599 8.12429 11.1342 8.56463C10.7232 9.00497 10.2682 9.40862 9.76918 9.77557C9.2848 10.1425 8.82978 10.5315 8.40412 10.9425C7.99313 11.3535 7.78764 11.6911 7.78764 11.9553C7.78764 12.0874 7.82434 12.2562 7.89773 12.4616C7.97112 12.6525 8.02983 12.7992 8.07386 12.902C8.13258 13.0047 8.23532 13.1809 8.3821 13.4304C8.54356 13.6799 8.63163 13.8194 8.64631 13.8487C9.76184 15.8596 11.0388 17.5843 12.4773 19.0227C13.9157 20.4612 15.6404 21.7382 17.6513 22.8537C17.6806 22.8684 17.8201 22.9564 18.0696 23.1179C18.3191 23.2647 18.4953 23.3674 18.598 23.4261C18.7008 23.4702 18.8475 23.5289 19.0384 23.6023C19.2438 23.6757 19.4126 23.7124 19.5447 23.7124C19.8089 23.7124 20.1465 23.5069 20.5575 23.0959C20.9685 22.6702 21.3575 22.2152 21.7244 21.7308C22.0914 21.2318 22.495 20.7768 22.9354 20.3658C23.3757 19.9401 23.7427 19.7273 24.0362 19.7273C24.2417 19.7273 24.4472 19.7786 24.6527 19.8814C24.8729 19.9841 25.1371 20.1456 25.4453 20.3658C25.7535 20.5713 25.937 20.696 25.9957 20.7401C26.3627 20.9602 26.7517 21.1877 27.1626 21.4226C27.5883 21.6574 28.058 21.9143 28.5717 22.1932C29.0855 22.4721 29.4818 22.6922 29.7607 22.8537C30.7881 23.3674 31.3459 23.7564 31.434 24.0206C31.478 24.1233 31.5 24.2775 31.5 24.483Z" fill="#0181AA"/>
</svg>
