<svg width="275" height="262" viewBox="0 0 275 262" fill="none" xmlns="http://www.w3.org/2000/svg">
<path d="M271.398 1.78539C270.678 1.71345 269.923 1.63431 269.109 1.56236C238.81 -1.32268 120.375 -3.39472 42.6329 25.8657C42.6329 25.8657 54.5513 25.9377 72.8821 26.6284C90.9251 20.5417 149.048 5.79279 252.966 4.23876C248.281 4.81432 243.625 5.46184 238.997 6.16691C199.5 12.196 162.78 22.5562 137.548 30.7293C124.449 34.9741 114.459 38.6218 108.774 40.773C105.334 42.0752 103.47 42.8378 103.47 42.8378L101.901 43.6077C101.901 43.6077 152.251 34.564 201.493 39.4923C201.493 39.4923 197.995 38.7945 196.211 38.4779C182.263 36.0173 171.388 34.2906 145.587 33.4848C194.008 18.297 259.206 8.24615 259.206 8.24615H259.228C234.636 28.3551 227.561 68.76 186.89 126.36C143.017 188.514 54.8463 233.085 -1.99589 218.825C-25.9908 212.81 -39.9747 200.601 -48.1361 188.5C-50.1225 185.55 -51.7562 182.615 -53.1165 179.773C-49.1653 177.665 -44.9262 175.679 -40.3849 173.823L-28.6897 169.535C-28.6897 169.535 -28.6897 169.528 -28.6897 169.521C-28.517 169.463 -28.3587 169.405 -28.1931 169.348C2.26476 159.419 55.2278 152.002 106.046 151.628C83.3178 149.117 39.8621 151.548 39.8621 151.548C22.1214 152.592 3.15719 154.282 -13.2233 156.944C-30.2947 159.714 -45.099 163.304 -57.5786 167.679C-61.8177 169.168 -65.7977 170.751 -69.4969 172.42C-84.0925 179.003 -94.5067 186.996 -100.646 196.356C-112.319 214.17 -106.036 235.308 -86.2372 262C-86.3956 261.691 -101.948 230.847 -81.0482 202.587C-76.8667 196.932 -71.4545 191.737 -64.8764 187.025C-64.5742 187.744 -64.2791 188.457 -63.948 189.176C-55.7218 207.199 -38.2978 227.826 -1.42013 237.43C71.3995 256.388 155 204.407 200.896 128.116C242.027 59.7452 242.192 28.3695 273.219 3.12359C273.37 3.00128 273.514 2.88617 273.665 2.76386C273.939 2.54083 274.219 2.3178 274.5 2.08757C273.586 1.98684 272.55 1.87892 271.412 1.76381L271.398 1.78539Z" fill="#DBF5EA"/>
</svg>
