<svg width="575" height="889" viewBox="0 0 575 889" fill="none" xmlns="http://www.w3.org/2000/svg">
<path d="M241.593 99.542C242.791 99.4222 244.05 99.2904 245.404 99.1707C295.852 94.3671 493.045 90.9172 622.485 139.636C622.485 139.636 602.641 139.755 572.12 140.905C542.079 130.771 445.304 106.214 272.282 103.627H250.581C256.575 105.973 260.595 109.053 261.856 110.299C302.802 143.78 314.582 211.054 382.298 306.958C455.346 410.444 602.15 484.654 696.792 460.911C736.743 450.897 760.026 430.569 773.615 410.42C776.922 405.509 779.642 400.621 781.907 395.89L801.487 407.964C800.984 409.162 800.493 410.348 799.941 411.546C786.245 441.553 757.234 475.897 695.833 491.889C574.589 523.454 435.394 436.906 358.979 309.881C290.496 196.045 290.22 143.804 238.561 101.77C238.31 101.566 238.07 101.375 237.818 101.171C237.363 100.8 236.896 100.428 236.428 100.045C237.95 99.8774 239.676 99.6977 241.569 99.5061L241.593 99.542Z" fill="#DBF5EA" fill-opacity="0.3"/>
<path d="M181.475 72.0952C183.018 71.9408 184.638 71.771 186.382 71.6167C251.342 65.4269 505.258 60.9813 671.933 123.759C671.933 123.759 646.38 123.914 607.08 125.396C568.397 112.337 443.785 80.693 220.991 77.3588H193.048C200.766 80.3818 205.943 84.3503 207.567 85.9567C260.291 129.1 275.459 215.788 362.654 339.369C456.715 472.72 645.748 568.345 767.614 537.751C819.058 524.847 849.038 498.652 866.536 472.689C870.794 466.36 874.297 460.062 877.213 453.965L902.426 469.525C901.778 471.068 901.145 472.596 900.435 474.14C882.799 512.807 845.443 557.062 766.38 577.669C610.259 618.343 431.024 506.818 332.627 343.135C244.445 196.447 244.09 129.131 177.571 74.9663C177.247 74.7039 176.938 74.4569 176.614 74.1945C176.028 73.716 175.426 73.2375 174.824 72.7435C176.784 72.5274 179.006 72.2959 181.444 72.0489L181.475 72.0952Z" fill="#DBF5EA" fill-opacity="0.3"/>
<path d="M109.35 43.739C111.543 43.5196 113.845 43.2783 116.323 43.0589C208.635 34.2618 569.463 27.9437 806.316 117.165C806.316 117.165 770.006 117.385 714.158 119.491C659.187 100.931 482.106 55.9584 165.505 51.2198H125.796C136.764 55.5161 144.121 61.1562 146.428 63.4392C221.352 124.756 242.906 247.959 366.815 423.594C500.481 613.115 769.107 749.021 942.285 705.54C1015.39 687.2 1057.99 649.971 1082.86 613.072C1088.91 604.077 1093.89 595.126 1098.03 586.461L1133.86 608.574C1132.94 610.768 1132.04 612.94 1131.03 615.134C1105.97 670.088 1052.88 732.984 940.53 762.271C718.675 820.078 463.973 661.576 324.145 428.947C198.833 220.471 198.329 124.8 103.803 47.8194C103.342 47.4465 102.904 47.0955 102.443 46.7225C101.61 46.0425 100.755 45.3624 99.8997 44.6604C102.684 44.3532 105.842 44.0242 109.306 43.6732L109.35 43.739Z" fill="#DBF5EA" fill-opacity="0.3"/>
<path d="M12.7527 7.35316C15.7115 7.05685 18.8186 6.73091 22.1621 6.4346C146.731 -5.44746 633.645 -13.9812 953.264 106.528C953.264 106.528 904.265 106.825 828.902 109.669C754.723 84.6014 515.763 23.8577 88.5298 17.4574H34.9454C49.746 23.2603 59.6737 30.8783 62.7875 33.9619C163.893 116.781 192.978 283.189 360.185 520.415C540.559 776.398 903.052 959.962 1136.74 901.234C1235.39 876.462 1292.89 826.178 1326.44 776.339C1334.61 764.19 1341.32 752.1 1346.91 740.396L1395.26 770.264C1394.02 773.227 1392.81 776.161 1391.45 779.124C1357.63 853.35 1285.99 938.302 1134.38 977.859C834.998 1055.94 491.293 841.853 302.605 527.645C133.505 246.061 132.824 116.84 5.26685 12.8645C4.64551 12.3608 4.05359 11.8867 3.43225 11.383C2.30786 10.4644 1.15381 9.54586 -0.00012207 8.59767C3.75769 8.18283 8.01855 7.73837 12.6936 7.26427L12.7527 7.35316Z" fill="#DBF5EA" fill-opacity="0.3"/>
<path d="M298.569 122.109C299.466 122.019 300.407 121.92 301.421 121.83C339.178 118.228 486.763 115.641 583.64 152.177C583.64 152.177 568.789 152.267 545.946 153.129C523.462 145.529 451.033 127.113 321.537 125.172H305.296C309.782 126.932 312.791 129.241 313.735 130.176C344.38 155.285 353.196 205.737 403.877 277.66C458.548 355.27 568.421 410.923 639.254 393.118C669.155 385.607 686.58 370.362 696.751 355.252C699.226 351.568 701.262 347.903 702.957 344.355L717.611 353.41C717.235 354.308 716.867 355.198 716.454 356.096C706.203 378.6 684.491 404.356 638.536 416.349C547.793 440.021 443.616 375.115 386.424 279.852C335.169 194.481 334.963 155.303 296.3 123.78C296.112 123.627 295.932 123.483 295.744 123.331C295.403 123.052 295.053 122.774 294.703 122.486C295.842 122.36 297.134 122.226 298.551 122.082L298.569 122.109Z" fill="#DBF5EA" fill-opacity="0.3"/>
</svg>
